<?xml version="1.0" encoding="iso-8859-1"?>
<!-- Uploaded to: SVG Repo, www.svgrepo.com, Generator: SVG Repo Mixer Tools -->
<svg fill="#000000" height="800px" width="800px" version="1.1" id="Layer_1" xmlns="http://www.w3.org/2000/svg" xmlns:xlink="http://www.w3.org/1999/xlink" 
	 viewBox="0 0 496 496" xml:space="preserve">
<g>
	<g>
		<g>
			<path d="M376,176h-22c9.144-17.216,14-36.296,14-56C368,53.832,314.168,0,248,0H120C53.832,0,0,53.832,0,120
				c0,47.456,28.712,90.92,72,109.872V320h19.312l37.496-37.496C128.312,286.936,128,291.432,128,296c0,66.168,53.832,120,120,120
				h76.688l80,80H424v-90.128c43.288-18.952,72-62.424,72-109.872C496,229.832,442.168,176,376,176z M136.336,252.344L88,300.688
				v-81.672l-5.144-1.968C42.864,201.728,16,162.728,16,120C16,62.656,62.656,16,120,16h128c57.344,0,104,46.656,104,104
				c0,19.976-5.736,39.224-16.52,56H320v-48h-21.544c-1.128-3.2-2.416-6.32-3.848-9.352l15.216-15.216l-45.248-45.248L249.36,73.4
				c-3.04-1.44-6.16-2.728-9.36-3.856V48h-64v21.544c-3.2,1.128-6.32,2.416-9.352,3.848l-15.216-15.216l-45.248,45.248L121.4,118.64
				c-1.44,3.04-2.728,6.16-3.856,9.36H96v64h21.544c1.128,3.2,2.416,6.32,3.848,9.352l-15.216,15.216l31.752,31.752
				C137.352,249.64,136.864,251,136.336,252.344z M208,112c-26.472,0-48,21.528-48,48c0,15.128,7.248,29.104,18.944,38.024
				c-13.344,9.432-24.632,21.528-33.2,35.488L128.8,216.568l12.32-12.32l-2.952-5.28c-2.976-5.312-5.36-11.088-7.08-17.152
				l-1.64-5.816H112v-32h17.448l1.648-5.824c1.72-6.064,4.104-11.832,7.08-17.152l2.952-5.28l-12.32-12.32L151.432,80.8l12.32,12.32
				l5.28-2.952c5.312-2.976,11.088-5.36,17.152-7.08l5.816-1.64V64h32v17.448l5.824,1.648c6.064,1.72,11.832,4.104,17.152,7.08
				l5.28,2.952l12.32-12.32l22.624,22.624l-12.32,12.32l2.952,5.28c2.976,5.312,5.36,11.088,7.08,17.152l1.64,5.816H304v32h-50.864
				C255,170.888,256,165.512,256,160C256,133.528,234.472,112,208,112z M240,160c0,5.928-1.784,11.624-5.024,16.736
				c-14.424,1.568-28.04,5.776-40.488,12.008C183.344,183.512,176,172.368,176,160c0-17.648,14.352-32,32-32S240,142.352,240,160z
				 M413.144,393.048L408,395.016v81.672L331.312,400H248c-57.344,0-104-46.656-104-104s46.656-104,104-104h128
				c57.344,0,104,46.656,104,104C480,338.728,453.136,377.728,413.144,393.048z"/>
			<path d="M384,280c0-39.704-32.296-72-72-72c-39.704,0-72,32.296-72,72c0,20.616,8.696,39.944,24,53.616V336h-16v16h16v32h96v-32
				h16v-16h-16v-2.384C375.304,319.944,384,300.616,384,280z M344,368h-64v-16h24h16h24V368z M312,296c-8.824,0-16-7.176-16-16
				c0-8.824,7.176-16,16-16c8.824,0,16,7.176,16,16C328,288.824,320.824,296,312,296z M346.992,323.672L344,326.08V336h-24v-25.136
				c13.768-3.576,24-15.992,24-30.864c0-17.648-14.352-32-32-32s-32,14.352-32,32c0,14.872,10.232,27.288,24,30.864V336h-24v-9.92
				l-2.992-2.408C263.656,312.96,256,297.048,256,280c0-30.872,25.128-56,56-56s56,25.128,56,56
				C368,297.048,360.344,312.96,346.992,323.672z"/>
		</g>
	</g>
</g>
</svg>