<?xml version="1.0" encoding="iso-8859-1"?>
<!-- Uploaded to: SVG Repo, www.svgrepo.com, Generator: SVG Repo Mixer Tools -->
<!DOCTYPE svg PUBLIC "-//W3C//DTD SVG 1.1//EN" "http://www.w3.org/Graphics/SVG/1.1/DTD/svg11.dtd">
<svg fill="#000000" version="1.1" id="Capa_1" xmlns="http://www.w3.org/2000/svg" xmlns:xlink="http://www.w3.org/1999/xlink" 
	 width="800px" height="800px" viewBox="0 0 123.957 123.957"
	 xml:space="preserve">
<g>
	<g>
		<path d="M107.424,16.738L91.597,0H16.509v123.957h90.939L107.424,16.738z M98.455,23.893v91.167H25.31V8.897h58.97v14.984
			L98.455,23.893z"/>
		<rect x="29.076" y="39.432" width="43.938" height="6.5"/>
		<polygon points="87.758,45.292 83.414,40.947 85.122,39.238 87.758,41.875 93.024,36.609 93.024,35.803 79.267,35.803 
			79.267,49.56 93.024,49.56 93.024,40.027 		"/>
		<rect x="29.076" y="59.807" width="43.938" height="6.5"/>
		<polygon points="79.267,56.178 79.267,69.936 93.024,69.936 93.024,56.984 93.024,56.178 		"/>
		<rect x="29.076" y="80.932" width="43.938" height="6.5"/>
		<rect x="79.267" y="77.303" width="13.758" height="13.758"/>
	</g>
</g>
</svg>